<?xml version="1.0" encoding="utf-8"?>
<!-- Generator: Adobe Illustrator 23.0.1, SVG Export Plug-In . SVG Version: 6.00 Build 0)  -->
<svg version="1.1" id="Layer_1" xmlns="http://www.w3.org/2000/svg" xmlns:xlink="http://www.w3.org/1999/xlink" x="0px" y="0px"
	 viewBox="0 0 30 30" style="enable-background:new 0 0 30 30;" xml:space="preserve">
<style type="text/css">
	.st0{fill:#26262D;}
</style>
<path class="st0" d="M12.6,0.7C6,0.7,0.7,6,0.7,12.6S6,24.6,12.6,24.6c2.9,0,5.5-1,7.6-2.7l7.1,7.1c0.5,0.5,1.2,0.5,1.7,0
	c0.5-0.5,0.5-1.2,0-1.7c0,0,0,0,0,0l-7.1-7.1c1.7-2.1,2.7-4.7,2.7-7.6C24.6,6,19.2,0.7,12.6,0.7z M12.6,3.1c5.3,0,9.6,4.3,9.6,9.6
	s-4.3,9.6-9.6,9.6s-9.6-4.3-9.6-9.6S7.3,3.1,12.6,3.1z"/>
</svg>
